<svg width="294" height="360" viewBox="0 0 294 360" fill="none" xmlns="http://www.w3.org/2000/svg">
  <rect y="355" width="294" height="5" rx="2.5" fill="#0A3871"/> <!-- PISO -->
  <rect id="piece-1" x="80.6748" width="4.5" height="360" rx="2.25" fill="#ffffff00"/> <!-- PALO 1 -->
  <rect id="piece-2" x="80.6748" width="177.75" height="4.5" rx="2.25" fill="#ffffff00"/> <!-- PALO 2 -->
  <rect id="piece-3" x="253.925" width="4.5" height="49.5" rx="2.25" fill="#ffffff00"/> <!-- PALO 3 -->
  <path id="piece-4" fill-rule="evenodd" clip-rule="evenodd" d="M256.175 103.5C271.086 103.5 283.175 91.4117 283.175 76.5C283.175 61.5883 271.086 49.5 256.175 49.5C241.263 49.5 229.175 61.5883 229.175 76.5C229.175 91.4117 241.263 103.5 256.175 103.5ZM256.175 108C273.572 108 287.675 93.897 287.675 76.5C287.675 59.103 273.572 45 256.175 45C238.778 45 224.675 59.103 224.675 76.5C224.675 93.897 238.778 108 256.175 108Z" fill="#ffffff00"/> <!-- CABEZA -->
  <rect id="piece-5" x="253.925" y="108" width="4.5" height="135" fill="#ffffff00"/> <!-- TRONCO -->
  <rect id="piece-6" x="254.749" y="106.875" width="4.4994" height="72" rx="2.2497" transform="rotate(30 254.749 106.875)" fill="#ffffff00"/> <!-- BRAZO IZQUIERDO -->
  <rect id="piece-7" width="4.49914" height="72" rx="2.24957" transform="matrix(-0.866025 0.5 0.5 0.866025 257.52 106.875)" fill="#ffffff00"/> <!-- BRAZO DERECHO -->
  <rect id="piece-8" x="254.748" y="239.625" width="4.50155" height="72" rx="2.25078" transform="rotate(30 254.748 239.625)" fill="#ffffff00"/> <!-- PIERNA IZQUIERDA -->
  <rect id="piece-9" width="4.50385" height="72" rx="2.25193" transform="matrix(-0.866025 0.5 0.5 0.866025 257.522 239.624)" fill="#ffffff00"/> <!-- PIERNA DERECHA -->
</svg>
